<?xml version="1.0" encoding="UTF-8" standalone="no"?>
<!-- Created with Inkscape (http://www.inkscape.org/) -->

<svg
   width="210mm"
   height="297mm"
   viewBox="0 0 210 297"
   version="1.1"
   id="svg1"
   inkscape:version="1.3.2 (091e20e, 2023-11-25, custom)"
   sodipodi:docname="enemy.svg"
   xmlns:inkscape="http://www.inkscape.org/namespaces/inkscape"
   xmlns:sodipodi="http://sodipodi.sourceforge.net/DTD/sodipodi-0.dtd"
   xmlns="http://www.w3.org/2000/svg"
   xmlns:svg="http://www.w3.org/2000/svg">
  <sodipodi:namedview
     id="namedview1"
     pagecolor="#ffffff"
     bordercolor="#000000"
     borderopacity="0.25"
     inkscape:showpageshadow="2"
     inkscape:pageopacity="0.0"
     inkscape:pagecheckerboard="0"
     inkscape:deskcolor="#d1d1d1"
     inkscape:document-units="mm"
     inkscape:zoom="0.73139029"
     inkscape:cx="369.15995"
     inkscape:cy="559.89258"
     inkscape:window-width="1920"
     inkscape:window-height="1017"
     inkscape:window-x="-8"
     inkscape:window-y="-8"
     inkscape:window-maximized="1"
     inkscape:current-layer="layer1" />
  <defs
     id="defs1" />
  <g
     inkscape:label="Layer 1"
     inkscape:groupmode="layer"
     id="layer1">
    <rect
       style="fill:#000000;stroke-width:0.264583"
       id="rect2"
       width="37.260654"
       height="2.5322795"
       x="47.751522"
       y="319.11707"
       rx="0.1" />
    <rect
       style="fill:#ffffff;stroke-width:0.23354"
       id="rect3"
       width="32.50597"
       height="3.0770128"
       x="115.57661"
       y="67.33992"
       rx="0.082437225"
       transform="matrix(0.79506659,0.60652215,-0.40039875,0.91634101,0,0)" />
    <rect
       style="fill:#ffffff;stroke-width:0.34105"
       id="rect4"
       width="78.138863"
       height="2.8940315"
       x="63.306942"
       y="132.04019"
       rx="0.2076923" />
    <path
       d="m 89.057853,150.12773 c -0.03678,0 -0.06622,0.0408 -0.06622,0.0911 v 3.43558 c 0,0.0503 0.02944,0.0911 0.06622,0.0911 H 117.5038 c 0.0368,0 0.0662,-0.0408 0.0662,-0.0911 v -3.43558 c 0,-0.0503 -0.0294,-0.0911 -0.0662,-0.0911 z"
       style="stroke-width:0.205545;fill:#ffffff"
       id="path6" />
    <rect
       style="fill:#ffffff;stroke-width:0.23354"
       id="rect3-1"
       width="32.50597"
       height="3.0770128"
       x="-78.880135"
       y="195.82115"
       rx="0.082437225"
       transform="matrix(-0.79506659,0.60652215,0.40039875,0.91634101,0,0)" />
    <rect
       style="fill:#ffffff;stroke-width:0.23354"
       id="rect3-18"
       width="32.50597"
       height="3.0770128"
       x="5.3156095"
       y="-150.4458"
       rx="0.082437225"
       transform="matrix(0.79506659,-0.60652215,-0.40039875,-0.91634101,0,0)" />
    <rect
       style="fill:#ffffff;stroke-width:0.23354"
       id="rect3-1-1"
       width="32.50597"
       height="3.0770128"
       x="156.54704"
       y="18.826994"
       rx="0.082437225"
       transform="matrix(0.79506659,0.60652215,-0.40039875,0.91634101,0,0)" />
    <path
       d="m 88.463982,112.38822 c -0.03678,0 -0.06622,0.0408 -0.06622,0.0911 v 3.43558 c 0,0.0503 0.02944,0.0911 0.06622,0.0911 h 28.445948 c 0.0368,0 0.0662,-0.0408 0.0662,-0.0911 v -3.43558 c 0,-0.0503 -0.0294,-0.0911 -0.0662,-0.0911 z"
       style="stroke-width:0.205545;fill:#ffffff"
       id="path6-8" />
    <path
       d="m 94.7094,91.967286 c -0.02095,0 -0.03772,0.0408 -0.03772,0.0911 v 3.43558 c 0,0.0503 0.01677,0.0911 0.03772,0.0911 h 16.20331 c 0.0209,0 0.0377,-0.0408 0.0377,-0.0911 v -3.43558 c 0,-0.0503 -0.0168,-0.0911 -0.0377,-0.0911 z"
       style="stroke-width:0.155131;fill:#ffffff"
       id="path6-8-2" />
    <path
       d="m 117.72151,115.6784 c 0.0133,0.0281 0.0529,0.0355 0.0894,0.0168 l 2.50242,-1.27774 c 0.0367,-0.0186 0.0562,-0.0564 0.0432,-0.0846 l -9.92311,-21.77115 c -0.0133,-0.02806 -0.0528,-0.03549 -0.0895,-0.01677 l -2.50242,1.277727 c -0.0365,0.01866 -0.0562,0.05639 -0.0432,0.08455 z"
       style="stroke-width:0.170393;fill:#ffffff"
       id="path6-8-27" />
    <path
       d="m 89.433943,115.19705 c -0.01135,0.0289 -0.05029,0.039 -0.08802,0.0229 l -2.584291,-1.1028 c -0.03785,-0.016 -0.05991,-0.0523 -0.04893,-0.0815 l 8.403915,-22.401458 c 0.01135,-0.02891 0.05029,-0.03904 0.08811,-0.02288 l 2.584294,1.102785 c 0.03773,0.0161 0.0599,0.0524 0.04894,0.08138 z"
       style="stroke-width:0.170393;fill:#ffffff"
       id="path6-8-27-3" />
  </g>
</svg>
