<?xml version="1.0" standalone="no"?>
<!DOCTYPE svg PUBLIC "-//W3C//DTD SVG 20010904//EN"
 "http://www.w3.org/TR/2001/REC-SVG-20010904/DTD/svg10.dtd">
<svg version="1.0" xmlns="http://www.w3.org/2000/svg"
 width="1000.000000pt" height="1000.000000pt" viewBox="0 0 1000.000000 1000.000000"
 preserveAspectRatio="xMidYMid meet">

<g transform="translate(0.000000,1000.000000) scale(0.100000,-0.100000)"
fill="#0000ff" stroke="none">
<path d="M4864 8398 c-16 -13 -40 -36 -54 -53 -13 -16 -43 -48 -65 -70 -23
-22 -63 -66 -89 -98 -25 -32 -62 -75 -80 -95 -19 -20 -55 -64 -80 -97 -25 -33
-63 -80 -85 -105 -22 -25 -54 -63 -73 -85 -18 -21 -46 -54 -63 -71 -67 -73
-83 -93 -90 -113 -3 -11 -15 -23 -25 -26 -11 -3 -29 -18 -40 -33 -37 -49 -104
-124 -177 -200 -40 -42 -73 -78 -73 -82 0 -3 -38 -45 -85 -92 -47 -48 -85 -91
-85 -95 0 -5 -20 -26 -45 -46 -25 -21 -45 -42 -45 -46 0 -5 -23 -31 -51 -57
-28 -27 -60 -60 -72 -73 -19 -21 -52 -54 -130 -131 -7 -7 -55 -55 -108 -109
-53 -53 -147 -144 -210 -203 -63 -59 -128 -121 -146 -138 -17 -16 -36 -30 -42
-30 -6 0 -11 -5 -11 -10 0 -13 -60 -68 -82 -75 -9 -3 -19 -14 -22 -23 -3 -10
-19 -23 -36 -29 -16 -6 -30 -18 -30 -27 0 -9 -4 -16 -10 -16 -10 0 -39 -21
-76 -56 -13 -12 -25 -20 -27 -18 -2 2 -17 -11 -34 -28 -41 -45 -94 -88 -109
-88 -7 0 -23 -12 -36 -28 -12 -15 -47 -44 -76 -65 -29 -22 -57 -48 -64 -60
-17 -32 -11 -142 11 -211 10 -34 23 -74 27 -91 4 -16 8 -34 10 -40 1 -5 5 -25
8 -44 4 -19 11 -42 16 -51 5 -9 11 -32 14 -51 4 -39 32 -144 41 -159 3 -5 8
-26 10 -46 3 -20 16 -68 29 -108 13 -39 27 -92 30 -119 3 -26 13 -61 21 -77 9
-17 18 -49 21 -73 7 -60 24 -135 41 -187 9 -25 20 -63 24 -85 10 -41 16 -66
19 -75 1 -3 2 -8 1 -12 0 -5 3 -8 8 -8 5 0 7 -8 4 -18 -2 -10 5 -54 17 -98 50
-182 54 -204 75 -334 14 -89 17 -104 27 -129 13 -31 13 -32 23 -101 7 -58 9
-69 19 -110 37 -154 46 -193 61 -245 9 -33 23 -89 31 -125 15 -67 81 -267 94
-285 4 -5 10 -22 14 -37 6 -26 9 -27 65 -27 33 1 65 -3 73 -7 7 -5 20 -9 28
-11 8 -1 58 -10 110 -19 52 -10 99 -17 104 -15 6 1 19 -2 30 -7 29 -13 125
-33 157 -32 15 0 39 -7 55 -15 16 -8 49 -17 74 -21 25 -4 52 -12 60 -18 8 -7
33 -18 55 -24 22 -7 75 -23 119 -37 43 -14 86 -25 96 -25 9 0 20 -3 24 -7 6
-6 64 -29 96 -38 33 -9 87 -29 112 -41 14 -8 35 -14 45 -14 10 0 23 -4 29 -9
5 -5 41 -19 79 -32 39 -12 80 -29 92 -37 12 -7 27 -11 33 -7 5 3 20 -1 32 -9
12 -9 32 -16 44 -16 12 0 27 -7 34 -15 7 -8 19 -15 27 -15 7 0 30 -7 51 -16
20 -9 48 -18 61 -20 13 -1 31 -10 40 -18 10 -9 24 -16 32 -16 8 0 25 -6 39
-13 14 -8 41 -17 59 -20 18 -4 44 -16 58 -27 14 -11 34 -20 44 -20 11 0 27 -4
37 -9 54 -29 153 -71 166 -71 9 0 16 -4 16 -10 0 -5 8 -10 18 -10 16 0 129
-46 276 -113 37 -18 71 -32 75 -33 13 -2 88 -35 132 -59 26 -14 56 -25 68 -25
12 0 21 -3 21 -7 0 -9 49 -33 67 -33 6 0 29 -11 49 -25 20 -14 42 -25 49 -25
7 0 32 -9 56 -19 24 -11 47 -19 50 -18 4 1 15 -5 25 -14 11 -10 41 -24 69 -34
27 -9 54 -20 60 -24 5 -4 40 -18 76 -31 101 -35 125 -17 88 66 -12 27 -24 58
-26 69 -1 11 -7 40 -13 65 -9 43 -17 92 -25 155 -2 17 -11 62 -19 100 -8 39
-20 97 -27 130 -14 68 -14 65 -22 85 -3 8 -11 40 -17 70 -7 30 -16 71 -20 90
-30 134 -93 440 -106 513 -2 17 -6 33 -8 36 -2 3 -7 22 -10 41 -3 19 -15 78
-26 130 -12 52 -23 109 -26 125 -3 17 -27 134 -54 260 -27 127 -58 277 -70
335 -12 58 -33 154 -45 213 -13 59 -26 122 -29 140 -3 18 -12 61 -20 97 -8 36
-17 76 -20 90 -10 53 -46 229 -66 325 -47 220 -99 472 -104 500 -3 17 -8 41
-11 55 -12 51 -36 166 -41 195 -3 17 -15 71 -26 120 -38 175 -63 305 -73 380
-4 28 -11 57 -15 65 -4 8 -11 35 -15 60 -8 56 -13 79 -19 105 -2 11 -16 70
-30 130 -14 61 -48 220 -75 355 -48 239 -100 484 -140 665 -11 50 -22 104 -24
120 -7 38 -31 158 -62 300 -13 61 -28 142 -35 180 -10 66 -29 155 -50 235 -10
42 -34 179 -35 200 0 11 -13 16 -46 18 -35 2 -52 -2 -75 -20z"/>
<path d="M7304 8171 c-3 -3 -56 -6 -117 -7 -132 -1 -245 -13 -254 -27 -8 -14
-3 -170 6 -177 4 -3 11 -16 14 -30 8 -38 31 -96 44 -111 6 -8 14 -39 17 -69 9
-74 36 -106 101 -121 28 -6 79 -18 115 -27 36 -9 68 -16 71 -17 3 0 21 -8 40
-17 19 -9 50 -23 69 -32 19 -8 52 -26 73 -40 21 -14 42 -26 47 -26 6 0 27 -15
47 -33 21 -18 50 -41 66 -50 45 -28 207 -179 207 -192 0 -3 14 -20 30 -37 17
-16 30 -33 30 -38 0 -5 9 -12 20 -15 11 -3 20 -13 20 -20 0 -8 10 -25 23 -39
36 -40 52 -60 52 -68 0 -4 10 -16 23 -28 12 -11 22 -30 22 -40 0 -11 4 -20 9
-20 5 0 21 -23 36 -51 14 -28 37 -62 51 -76 13 -13 24 -30 24 -38 0 -7 6 -20
13 -27 8 -7 22 -31 31 -53 10 -22 22 -47 27 -55 5 -8 20 -40 34 -70 14 -30 30
-62 35 -70 25 -39 110 -221 110 -234 0 -9 4 -16 9 -16 4 0 11 -23 14 -52 4
-28 10 -54 15 -57 8 -6 15 -34 52 -219 11 -51 22 -98 27 -105 9 -14 22 -98 30
-184 2 -35 9 -63 14 -63 5 0 7 -16 5 -35 -3 -19 0 -50 5 -68 5 -17 12 -113 15
-212 3 -99 8 -182 10 -184 2 -2 -1 -10 -6 -16 -10 -13 -13 -62 -6 -125 2 -23
-3 -43 -15 -59 -12 -14 -17 -34 -14 -49 2 -14 0 -58 -6 -96 -6 -39 -13 -84
-15 -101 -2 -16 -7 -46 -10 -65 -4 -19 -8 -43 -9 -52 -2 -10 -4 -19 -5 -20 -1
-2 -4 -14 -5 -28 -5 -44 -16 -82 -31 -111 -8 -16 -12 -29 -8 -29 4 0 2 -6 -4
-12 -8 -11 -22 -62 -25 -95 0 -5 -7 -14 -14 -21 -7 -7 -13 -20 -13 -27 0 -8
-6 -18 -12 -22 -7 -4 -31 -44 -52 -88 -22 -44 -45 -84 -53 -88 -7 -4 -13 -14
-13 -21 0 -6 -16 -29 -35 -50 -19 -21 -35 -43 -35 -48 0 -12 -26 -38 -37 -38
-5 0 -16 -13 -26 -29 -22 -38 -83 -101 -98 -101 -6 0 -17 -6 -24 -13 -33 -29
-41 -33 -53 -29 -15 5 -17 -44 -2 -53 6 -3 10 -19 10 -36 0 -16 5 -29 11 -29
6 0 8 -7 5 -16 -3 -9 -2 -33 3 -53 6 -20 12 -52 14 -71 2 -19 16 -59 32 -88
24 -44 33 -52 57 -52 21 0 28 -5 28 -20 0 -15 7 -20 24 -20 14 0 28 4 31 10 3
6 22 10 41 10 19 0 34 4 34 9 0 5 15 12 33 16 31 6 171 70 192 87 5 5 21 18
35 29 14 12 41 33 60 48 19 14 43 35 53 46 10 11 35 38 56 60 20 22 50 58 67
80 16 22 32 42 35 45 11 8 69 123 69 137 0 6 6 16 14 20 7 4 19 25 25 45 7 21
17 40 22 44 11 7 35 60 59 135 10 31 23 65 29 75 10 19 29 92 38 149 3 16 11
41 18 56 8 14 12 38 11 52 -2 15 0 29 3 31 4 3 8 19 9 37 1 18 7 38 12 44 5 6
7 20 6 30 -2 11 0 25 4 30 4 6 8 17 8 25 7 104 12 167 19 225 9 78 8 199 0
415 -4 80 -6 189 -6 242 0 57 -5 106 -12 119 -6 13 -13 50 -14 83 -1 34 -7 83
-13 109 -7 27 -10 52 -7 57 3 4 1 19 -4 32 -5 12 -11 41 -14 63 -3 22 -10 52
-16 67 -5 14 -7 29 -4 32 4 3 0 14 -9 23 -14 17 -30 75 -44 158 -4 22 -11 51
-17 65 -5 14 -12 34 -14 45 -2 11 -6 27 -9 35 -4 8 -8 28 -10 43 -2 16 -9 37
-15 48 -6 11 -17 46 -25 77 -8 31 -21 71 -29 89 -8 17 -15 38 -15 46 0 9 -4
18 -9 22 -5 3 -15 22 -22 43 -6 20 -15 39 -18 42 -9 7 -34 62 -38 84 -2 11
-10 27 -18 36 -8 9 -15 24 -15 33 0 9 -4 19 -10 22 -5 3 -14 24 -20 45 -6 22
-15 40 -19 40 -5 0 -11 10 -14 23 -5 19 -20 48 -83 158 -6 11 -20 30 -30 43
-11 12 -28 39 -38 59 -11 20 -23 37 -28 37 -4 0 -8 6 -8 13 0 7 -21 42 -47 76
-27 35 -53 72 -59 83 -12 19 -48 65 -96 121 -15 18 -30 40 -34 50 -3 9 -9 17
-13 17 -9 0 -81 69 -128 123 -18 20 -36 37 -40 37 -4 0 -23 18 -42 40 -19 22
-40 40 -45 40 -6 0 -24 12 -41 28 -16 15 -59 46 -95 69 -36 23 -72 48 -80 55
-20 18 -95 64 -95 59 0 -6 -78 20 -100 34 -11 7 -38 18 -60 25 -22 7 -45 16
-51 21 -11 9 -143 28 -176 27 -10 -1 -21 -4 -24 -7z"/>
<path d="M6304 7531 c-2 -2 -35 -5 -73 -6 -38 -2 -79 -8 -91 -15 -20 -11 -21
-17 -17 -88 5 -92 15 -150 30 -177 6 -11 10 -24 9 -28 -1 -4 3 -18 10 -30 7
-12 13 -31 15 -41 8 -50 28 -71 73 -79 101 -18 196 -40 215 -50 11 -6 29 -12
40 -14 10 -2 22 -7 25 -12 6 -9 69 -41 82 -41 5 0 19 -11 31 -24 12 -13 36
-30 52 -39 17 -8 59 -43 95 -77 36 -33 81 -73 100 -88 45 -34 75 -66 83 -86 4
-9 11 -16 17 -16 5 0 10 -7 10 -15 0 -9 7 -18 15 -21 8 -4 13 -10 10 -14 -3
-4 2 -13 10 -20 8 -7 15 -18 15 -25 0 -8 3 -15 8 -17 7 -3 51 -83 98 -178 95
-192 124 -254 124 -266 0 -8 5 -14 10 -14 6 0 10 -15 10 -34 0 -19 4 -37 9
-41 5 -3 12 -19 16 -35 4 -17 11 -30 16 -30 5 0 9 -17 9 -38 0 -22 7 -53 15
-69 9 -17 20 -70 27 -117 6 -47 14 -86 18 -86 16 0 47 -185 77 -450 10 -84 6
-269 -7 -390 -14 -125 -49 -317 -66 -355 -7 -16 -20 -57 -29 -90 -18 -64 -69
-189 -86 -208 -5 -7 -18 -26 -27 -44 -21 -38 -75 -104 -121 -147 -19 -17 -52
-48 -74 -68 -22 -21 -47 -38 -57 -38 -38 0 -44 -25 -25 -107 10 -43 22 -82 27
-88 4 -5 8 -15 8 -23 0 -13 15 -50 43 -109 8 -17 16 -21 34 -17 19 5 23 2 23
-15 0 -25 27 -28 56 -6 10 8 27 15 37 15 47 1 281 133 294 166 3 8 10 14 17
14 6 0 26 21 45 45 18 25 37 45 42 45 5 0 9 7 9 15 0 8 8 24 18 34 9 11 24 28
32 37 16 19 41 70 46 93 1 8 10 18 18 23 9 5 16 15 16 23 0 8 11 34 24 57 13
24 27 58 31 77 4 18 15 52 26 75 19 45 50 148 53 181 1 11 4 25 7 30 4 6 10
39 14 75 4 36 9 74 11 85 13 74 24 175 22 205 -1 20 2 41 6 48 10 16 -14 575
-25 587 -5 5 -9 33 -9 61 0 29 -4 56 -10 59 -5 3 -10 23 -10 43 0 20 -9 73
-21 117 -39 154 -42 166 -55 250 -4 22 -13 52 -20 66 -7 14 -15 37 -17 50 -2
13 -8 35 -14 49 -6 14 -16 45 -23 70 -6 25 -18 59 -25 75 -8 17 -16 40 -20 53
-3 12 -11 22 -16 22 -5 0 -9 7 -9 15 0 15 -3 23 -33 83 -9 19 -17 39 -17 46 0
8 -8 24 -19 37 -10 13 -24 42 -31 63 -7 22 -21 49 -31 60 -11 11 -19 24 -19
29 0 5 -13 29 -30 54 -16 24 -30 47 -30 50 0 7 -92 146 -101 153 -12 8 -99
123 -99 130 0 3 -26 34 -57 68 -32 34 -70 75 -85 92 -15 16 -30 30 -33 30 -2
0 -20 15 -38 34 -19 19 -49 41 -66 50 -17 9 -31 20 -31 25 0 5 -13 14 -30 20
-16 5 -30 17 -30 25 0 9 -8 16 -18 16 -10 0 -27 8 -38 19 -11 10 -30 22 -41
25 -12 4 -24 13 -27 21 -3 8 -12 15 -21 15 -8 0 -23 4 -33 9 -36 21 -134 51
-162 51 -15 0 -30 5 -32 11 -4 11 -224 20 -234 10z"/>
<path d="M5749 6595 c-3 -2 -33 -5 -67 -6 -78 -2 -92 -18 -88 -95 2 -30 8 -59
13 -66 5 -7 10 -28 12 -46 5 -62 52 -141 84 -143 60 -3 92 -11 157 -43 129
-62 149 -76 224 -155 88 -92 96 -102 96 -115 0 -7 11 -22 25 -34 14 -12 25
-28 25 -35 0 -8 9 -24 20 -37 11 -13 20 -29 20 -35 0 -7 7 -18 15 -25 8 -7 15
-20 15 -30 0 -9 9 -25 20 -35 10 -9 18 -20 18 -24 -1 -3 7 -24 19 -46 11 -22
24 -56 28 -75 4 -19 13 -44 20 -55 7 -11 15 -36 18 -55 3 -19 10 -51 16 -70 5
-19 15 -57 21 -85 6 -27 15 -63 20 -80 5 -16 10 -59 11 -95 2 -36 7 -71 12
-78 6 -7 7 -66 2 -150 -11 -186 -12 -205 -18 -222 -6 -17 -25 -120 -31 -165
-2 -17 -13 -48 -25 -70 -11 -22 -21 -45 -21 -52 0 -7 -4 -13 -9 -13 -4 0 -16
-20 -25 -45 -10 -25 -22 -45 -27 -45 -5 0 -14 -11 -19 -25 -5 -14 -16 -25 -24
-25 -8 0 -24 -13 -36 -30 -12 -16 -25 -29 -29 -27 -16 4 -71 -63 -71 -86 0
-48 59 -188 90 -214 13 -12 49 -12 100 -1 22 5 132 59 150 73 45 37 106 105
136 151 19 29 38 55 44 59 5 3 10 13 10 21 0 9 7 22 15 30 8 9 15 24 15 34 0
10 5 22 10 25 6 3 10 15 10 25 0 10 5 20 11 22 6 2 15 30 20 61 5 32 17 77 25
100 9 23 17 55 19 70 2 16 6 45 10 65 18 95 20 177 12 367 -6 145 -13 208 -28
277 -11 50 -14 66 -27 143 -4 28 -14 61 -21 73 -7 13 -15 40 -17 60 -6 50 -21
96 -52 162 -14 30 -26 57 -27 60 -5 22 -22 65 -47 120 -17 36 -34 74 -39 85
-5 11 -18 34 -29 50 -11 17 -23 37 -27 45 -7 15 -55 86 -102 150 -107 146
-290 307 -401 354 -25 11 -64 28 -87 38 -39 17 -181 27 -194 13z"/>
<path d="M1684 5557 c-43 -16 -88 -32 -99 -37 -11 -4 -40 -14 -65 -21 -25 -7
-72 -25 -106 -41 -34 -15 -64 -28 -68 -28 -3 0 -30 -12 -59 -26 -28 -14 -62
-27 -74 -30 -21 -4 -129 -53 -163 -74 -8 -5 -30 -15 -47 -22 -18 -7 -33 -16
-33 -20 0 -5 -3 -7 -7 -6 -9 1 -76 -28 -188 -83 -44 -21 -84 -39 -88 -39 -5 0
-17 -10 -28 -22 -23 -29 -25 -110 -4 -188 8 -30 15 -67 15 -81 0 -15 9 -47 20
-72 12 -27 18 -56 15 -69 -3 -13 1 -50 10 -83 41 -154 53 -204 58 -250 4 -27
16 -84 27 -125 12 -41 23 -85 26 -97 2 -12 9 -34 14 -48 6 -15 10 -39 10 -54
0 -15 3 -31 8 -35 4 -4 7 -11 7 -14 1 -4 4 -23 8 -42 4 -19 9 -53 12 -75 4
-22 12 -60 19 -85 26 -87 39 -135 42 -150 1 -8 7 -35 12 -60 19 -78 30 -133
42 -200 7 -36 16 -70 21 -76 5 -6 11 -27 13 -48 6 -47 35 -156 47 -178 5 -10
11 -41 15 -70 3 -29 9 -62 13 -73 16 -37 33 -108 37 -154 2 -25 8 -57 13 -71
12 -36 37 -131 47 -179 10 -51 31 -104 44 -111 22 -11 123 -5 214 14 44 9 82
19 86 21 4 3 22 7 41 9 48 7 93 16 174 32 39 8 84 17 100 20 17 3 60 14 97 25
37 10 80 21 95 23 15 3 100 22 188 44 88 22 195 47 237 56 75 17 78 19 83 50
4 18 -1 60 -10 95 -9 35 -14 65 -11 68 2 3 -2 22 -9 44 -13 36 -32 124 -39
178 -2 13 -8 26 -13 30 -6 3 -13 24 -16 46 -5 33 -21 112 -52 257 -2 9 -10 27
-18 40 -8 13 -18 43 -22 68 -9 58 -33 150 -45 172 -6 10 -10 30 -10 46 0 15
-7 52 -16 82 -41 144 -56 200 -70 260 -8 36 -16 70 -18 75 -1 6 -11 46 -21 90
-9 44 -22 88 -27 97 -9 18 -63 221 -98 368 -11 47 -29 119 -40 161 -11 42 -20
86 -20 97 0 11 -4 22 -10 24 -5 2 -28 77 -50 168 -23 91 -44 172 -47 180 -3 8
-7 26 -9 40 -4 35 -32 130 -47 160 -17 34 -61 33 -163 -3z"/>
</g>
</svg>
