<?xml version="1.0" standalone="no"?>
<!DOCTYPE svg PUBLIC "-//W3C//DTD SVG 20010904//EN"
 "http://www.w3.org/TR/2001/REC-SVG-20010904/DTD/svg10.dtd">
<svg version="1.0" xmlns="http://www.w3.org/2000/svg"
 width="1000.000000pt" height="1000.000000pt" viewBox="0 0 1000.000000 1000.000000"
 preserveAspectRatio="xMidYMid meet">

<g transform="translate(0.000000,1000.000000) scale(0.100000,-0.100000)"
fill="#ff0000" stroke="none">
<path d="M8879 9357 c-639 -660 -1770 -1829 -1924 -1987 -93 -96 -440 -454
-770 -795 -750 -775 -1243 -1284 -2576 -2660 -580 -600 -1515 -1565 -2077
-2145 l-1022 -1055 108 -108 c59 -60 141 -139 183 -177 l76 -69 1149 1186
c2937 3034 4011 4143 4554 4703 179 184 517 533 751 775 234 242 818 845 1297
1340 l872 900 -108 108 c-59 60 -141 139 -183 177 l-76 70 -254 -263z"/>
</g>
</svg>
